<?xml version="1.0" encoding="UTF-8"?>
<svg version="1.1" xmlns="http://www.w3.org/2000/svg" width="414" height="650">
<path d="M0 0 C136.62 0 273.24 0 414 0 C414 214.5 414 429 414 650 C277.38 650 140.76 650 0 650 C0 435.5 0 221 0 0 Z " fill="#FEFEFE" transform="translate(0,0)"/>
<path d="M0 0 C3.97635422 1.46990143 7.50812813 3.35114611 11.1640625 5.4921875 C11.74890411 5.83397034 12.33374573 6.17575317 12.93630981 6.52789307 C14.83493018 7.63957886 16.73015206 8.75689798 18.625 9.875 C19.27682251 10.25815369 19.92864502 10.64130737 20.60021973 11.03607178 C29.15088631 16.06385534 37.61675008 21.19731962 45.97070312 26.54711914 C56.49883401 33.27304518 67.27068528 39.60224891 78 46 C81.48849612 48.08055753 84.97644881 50.16201079 88.46240234 52.24682617 C90.65028647 53.55506034 92.83936335 54.8613024 95.02978516 56.1652832 C96.01640137 56.755271 97.00301758 57.34525879 98.01953125 57.953125 C98.88682861 58.47036133 99.75412598 58.98759766 100.64770508 59.52050781 C101.4239624 60.00874023 102.20021973 60.49697266 103 61 C103.75466553 61.4525415 104.50933105 61.90508301 105.28686523 62.37133789 C107 64 107 64 107.45410156 66.36010742 C107.4331543 67.26607666 107.41220703 68.1720459 107.390625 69.10546875 C107.37773437 70.08837891 107.36484375 71.07128906 107.3515625 72.08398438 C107.30128906 73.62022461 107.30128906 73.62022461 107.25 75.1875 C107.23195313 76.22326172 107.21390625 77.25902344 107.1953125 78.32617188 C107.14814437 80.88504284 107.08234057 83.44205842 107 86 C102.68674029 84.70693802 99.13103468 83.05415712 95.30859375 80.68359375 C94.21361572 80.01038086 93.1186377 79.33716797 91.99047852 78.64355469 C91.41258575 78.28467163 90.83469299 77.92578857 90.23928833 77.55603027 C87.12340927 75.621727 83.99505758 73.70780015 80.8671875 71.79296875 C80.21974075 71.3961087 79.57229401 70.99924866 78.90522766 70.59036255 C72.01531654 66.37776205 65.04224477 62.31131654 58.0625 58.25 C44.13586375 50.13457493 30.39893683 41.73589987 16.8125 33.0625 C15.59626953 32.29292969 15.59626953 32.29292969 14.35546875 31.5078125 C12.65643872 30.42020787 10.97331254 29.30761743 9.30078125 28.1796875 C8.41777344 27.60476562 7.53476563 27.02984375 6.625 26.4375 C5.85414063 25.92058594 5.08328125 25.40367187 4.2890625 24.87109375 C2.00666042 23.75541244 2.00666042 23.75541244 -0.43359375 24.58984375 C-3.3929539 26.21591531 -6.00086197 28.07978306 -8.6875 30.125 C-13.78291815 34 -13.78291815 34 -16 34 C-16 34.66 -16 35.32 -16 36 C-15.30575928 36.2465332 -14.61151855 36.49306641 -13.89624023 36.74707031 C-10.57128601 38.18546407 -7.6629551 40.04737838 -4.66015625 42.046875 C2.28566938 46.59024069 9.37481134 50.84950781 16.52914429 55.05450439 C26.31407622 60.80747868 36.06813228 66.59803556 45.6875 72.625 C53.86567042 77.74487459 62.16424764 82.64314246 70.5 87.5 C79.4805428 92.73276647 88.41474062 98.02349751 97.25 103.5 C98.13107422 104.04591797 99.01214844 104.59183594 99.91992188 105.15429688 C105.8573882 108.8573882 105.8573882 108.8573882 107 110 C107.09504251 112.52541002 107.12557158 115.02337126 107.11352539 117.54907227 C107.11367142 118.33925751 107.11381744 119.12944275 107.1139679 119.943573 C107.11326857 122.56787822 107.10547527 125.19211336 107.09765625 127.81640625 C107.09579214 129.63101665 107.0943682 131.44562756 107.09336853 133.26023865 C107.08954279 138.0459023 107.07971204 142.8315358 107.06866455 147.6171875 C107.05845163 152.49674064 107.05387117 157.37629864 107.04882812 162.25585938 C107.03808981 171.83725499 107.02049257 181.41862028 107 191 C99.08 191 91.16 191 83 191 C83 166.91 83 142.82 83 118 C81.35 117.34 79.7 116.68 78 116 C76.74937593 115.32177388 75.51477501 114.61289587 74.30078125 113.87109375 C73.64916016 113.47599609 72.99753906 113.08089844 72.32617188 112.67382812 C71.66166016 112.26583984 70.99714844 111.85785156 70.3125 111.4375 C65.72974148 108.58783936 65.72974148 108.58783936 61 106 C60.67 134.05 60.34 162.1 60 191 C52.41 191 44.82 191 37 191 C37.11633789 188.059729 37.23267578 185.11945801 37.35253906 182.09008789 C37.71832905 172.31686001 37.92650542 162.54468666 38.05958939 152.7656641 C38.14496869 146.84091705 38.28133142 140.92701335 38.53955078 135.00708008 C40.96648018 109.98037009 40.96648018 109.98037009 33.34936523 87.25701904 C27.26797986 81.25507022 19.58913624 78.20133097 11.64331055 75.41899109 C5.60149955 73.06583567 0.38872384 69.58078105 -5 66 C-5.84536316 65.43834137 -6.69072632 64.87668274 -7.56170654 64.29800415 C-8.9738465 63.35178355 -10.38423373 62.40294261 -11.79296875 61.45166016 C-15.94217825 58.72254514 -20.22759904 56.21754275 -24.5 53.6875 C-26.28202699 52.63021475 -28.0633193 51.57168988 -29.84375 50.51171875 C-30.61912109 50.05240967 -31.39449219 49.59310059 -32.19335938 49.11987305 C-34.87246138 47.45919184 -34.87246138 47.45919184 -35.58959961 44.87719727 C-37.13471058 37.15968635 -38.19698392 29.39343901 -35 22 C-28.71874348 14.81998324 -18.64095566 10.51911824 -10.13998413 6.55911255 C-6.32028833 4.77493826 -3.1862838 2.7609423 0 0 Z " fill="#0D518E" transform="translate(212,186)"/>
<path d="M0 0 C9.93551397 5.23554587 19.45888197 11.08422579 29 17 C29.75168457 17.46583496 30.50336914 17.93166992 31.27783203 18.41162109 C33.43668093 19.75125337 35.59389895 21.09345016 37.75 22.4375 C38.39283936 22.83807617 39.03567871 23.23865234 39.69799805 23.65136719 C40.30812744 24.03325195 40.91825684 24.41513672 41.546875 24.80859375 C42.07120117 25.13657959 42.59552734 25.46456543 43.13574219 25.80249023 C43.75094727 26.19766846 44.36615234 26.59284668 45 27 C46.01440155 27.50304153 47.0288031 28.00608307 48.07394409 28.52436829 C51 31 51 31 51.54616547 32.81809902 C51.74070664 35.16733814 51.74192431 37.45091604 51.68115234 39.80761719 C51.68246658 41.13985573 51.68246658 41.13985573 51.68380737 42.49900818 C51.67962958 45.43252752 51.63296918 48.36375559 51.5859375 51.296875 C51.57474603 53.33138785 51.56620561 55.36591687 51.56021118 57.40045166 C51.53730914 62.75368952 51.47837339 68.10594958 51.4119873 73.45880127 C51.35059482 78.92161837 51.32320261 84.38459357 51.29296875 89.84765625 C51.22863162 100.56560276 51.12309456 111.28256708 51 122 C43.74 122 36.48 122 29 122 C29.11633789 119.60500244 29.23267578 117.21000488 29.35253906 114.74243164 C29.7189561 106.76570008 29.9266645 98.79024811 30.05958939 90.80638981 C30.14486192 85.97005534 30.28074415 81.1470552 30.53955078 76.31665039 C32.48285093 56.4897075 32.48285093 56.4897075 26.70503235 38.26258469 C21.97831036 33.51006458 16.1616832 30.48980265 9.99981689 28.00550842 C0.50489676 24.16992047 0.50489676 24.16992047 -1.28936768 20.01234436 C-2.3252829 13.19317244 -1.61124833 6.67782754 0 0 Z " fill="#094F8E" transform="translate(177,255)"/>
<path d="M0 0 C2.95857409 -0.05379226 5.91617721 -0.09357093 8.875 -0.125 C9.71675781 -0.14175781 10.55851563 -0.15851563 11.42578125 -0.17578125 C12.23144531 -0.18222656 13.03710938 -0.18867188 13.8671875 -0.1953125 C14.98262939 -0.21102295 14.98262939 -0.21102295 16.12060547 -0.22705078 C18 0 18 0 20 2 C20.24609566 3.80783272 20.24609566 3.80783272 20.24050903 6.03689575 C20.24325836 6.88106049 20.24600769 7.72522522 20.24884033 8.5949707 C20.24164978 9.522854 20.23445923 10.4507373 20.22705078 11.40673828 C20.22734283 12.38238739 20.22763489 13.3580365 20.22793579 14.36325073 C20.22653868 17.59902741 20.21095951 20.83457588 20.1953125 24.0703125 C20.19158373 26.30947748 20.18873612 28.54864409 20.18673706 30.78781128 C20.17908992 36.6897632 20.15943215 42.59161714 20.1373291 48.49353027 C20.11689392 54.51260045 20.10774033 60.53168641 20.09765625 66.55078125 C20.07618729 78.36723062 20.04203833 90.18360717 20 102 C16.85418577 102.02888514 13.70840531 102.04675923 10.5625 102.0625 C9.66466797 102.07087891 8.76683594 102.07925781 7.84179688 102.08789062 C6.56079102 102.09272461 6.56079102 102.09272461 5.25390625 102.09765625 C4.46314697 102.10289307 3.6723877 102.10812988 2.85766602 102.11352539 C1 102 1 102 0 101 C-0.09534958 97.86440114 -0.12550879 94.75086387 -0.11352539 91.61499023 C-0.11367142 90.62973358 -0.11381744 89.64447693 -0.1139679 88.62936401 C-0.11326832 85.35575193 -0.10547385 82.08219596 -0.09765625 78.80859375 C-0.09579223 76.54557832 -0.09436825 74.28256249 -0.09336853 72.01954651 C-0.0895421 66.05021052 -0.07971075 60.08089868 -0.06866455 54.11157227 C-0.05845312 48.02555671 -0.05387149 41.93953727 -0.04882812 35.85351562 C-0.03808859 23.90233311 -0.02101068 11.95116856 0 0 Z " fill="#AB896B" transform="translate(122,210)"/>
<path d="M0 0 C0.92212784 0.00359528 1.84425568 0.00719055 2.79432678 0.01089478 C4.24295105 0.01067574 4.24295105 0.01067574 5.72084045 0.01045227 C8.92952175 0.01115182 12.1381458 0.0189462 15.34681702 0.02676392 C17.56499195 0.02862794 19.78316729 0.03005192 22.00134277 0.03105164 C27.85231148 0.03487801 33.70325554 0.04470931 39.55421448 0.05575562 C45.51958381 0.06596717 51.4849571 0.07054871 57.45033264 0.07559204 C69.16453621 0.08633147 80.87872144 0.10340932 92.59291077 0.12442017 C92.64670302 3.08299426 92.68648169 6.04059738 92.71791077 8.99942017 C92.73466858 9.84117798 92.75142639 10.68293579 92.76869202 11.55020142 C92.77513733 12.35586548 92.78158264 13.16152954 92.78822327 13.99160767 C92.7986969 14.7352356 92.80917053 15.47886353 92.81996155 16.24502563 C92.59291077 18.12442017 92.59291077 18.12442017 90.59291077 20.12442017 C87.48873659 20.31290488 84.47437176 20.3760247 81.36976624 20.35147095 C80.41362427 20.351763 79.4574823 20.35205505 78.47236633 20.35235596 C75.30151905 20.35095893 72.13090467 20.33538015 68.96009827 20.31973267 C66.76577381 20.31600386 64.57144769 20.31315627 62.37712097 20.31115723 C56.59353563 20.30351032 50.81005027 20.28385275 45.02650452 20.26174927 C39.12808078 20.24131359 33.22964093 20.23216039 27.33119202 20.22207642 C15.75172093 20.20060786 4.17232415 20.16645918 -7.40708923 20.12442017 C-7.43597438 16.97860593 -7.45384846 13.83282548 -7.46958923 10.68692017 C-7.47796814 9.78908813 -7.48634705 8.8912561 -7.49497986 7.96621704 C-7.49820251 7.11221313 -7.50142517 6.25820923 -7.50474548 5.37832642 C-7.51260071 4.1921875 -7.51260071 4.1921875 -7.52061462 2.98208618 C-7.25517411 -1.36143401 -3.49292548 0.00575472 0 0 Z " fill="#B89776" transform="translate(108.40708923339844,356.8755798339844)"/>
<path d="M0 0 C2.97922593 -0.02683987 5.95821295 -0.04676037 8.9375 -0.0625 C9.78763672 -0.07087891 10.63777344 -0.07925781 11.51367188 -0.08789062 C12.32255859 -0.09111328 13.13144531 -0.09433594 13.96484375 -0.09765625 C14.7137085 -0.10289307 15.46257324 -0.10812988 16.23413086 -0.11352539 C18 0 18 0 19 1 C19.09534958 4.13559886 19.12550879 7.24913613 19.11352539 10.38500977 C19.11367142 11.37026642 19.11381744 12.35552307 19.1139679 13.37063599 C19.11326832 16.64424807 19.10547385 19.91780404 19.09765625 23.19140625 C19.09579223 25.45442168 19.09436825 27.71743751 19.09336853 29.98045349 C19.0895421 35.94978948 19.07971075 41.91910132 19.06866455 47.88842773 C19.05845312 53.97444329 19.05387149 60.06046273 19.04882812 66.14648438 C19.03808859 78.09766689 19.02101068 90.04883144 19 102 C16.02077407 102.02683987 13.04178705 102.04676037 10.0625 102.0625 C9.21236328 102.07087891 8.36222656 102.07925781 7.48632812 102.08789062 C6.67744141 102.09111328 5.86855469 102.09433594 5.03515625 102.09765625 C4.2862915 102.10289307 3.53742676 102.10812988 2.76586914 102.11352539 C1 102 1 102 0 101 C-0.09534958 97.86440114 -0.12550879 94.75086387 -0.11352539 91.61499023 C-0.11367142 90.62973358 -0.11381744 89.64447693 -0.1139679 88.62936401 C-0.11326832 85.35575193 -0.10547385 82.08219596 -0.09765625 78.80859375 C-0.09579223 76.54557832 -0.09436825 74.28256249 -0.09336853 72.01954651 C-0.0895421 66.05021052 -0.07971075 60.08089868 -0.06866455 54.11157227 C-0.05845312 48.02555671 -0.05387149 41.93953727 -0.04882812 35.85351562 C-0.03808859 23.90233311 -0.02101068 11.95116856 0 0 Z " fill="#BA9A78" transform="translate(144,210)"/>
<path d="M0 0 C2.97922593 -0.02683987 5.95821295 -0.04676037 8.9375 -0.0625 C9.78763672 -0.07087891 10.63777344 -0.07925781 11.51367188 -0.08789062 C12.32255859 -0.09111328 13.13144531 -0.09433594 13.96484375 -0.09765625 C14.7137085 -0.10289307 15.46257324 -0.10812988 16.23413086 -0.11352539 C18 0 18 0 19 1 C19.09534958 4.13559886 19.12550879 7.24913613 19.11352539 10.38500977 C19.11367142 11.37026642 19.11381744 12.35552307 19.1139679 13.37063599 C19.11326832 16.64424807 19.10547385 19.91780404 19.09765625 23.19140625 C19.09579223 25.45442168 19.09436825 27.71743751 19.09336853 29.98045349 C19.0895421 35.94978948 19.07971075 41.91910132 19.06866455 47.88842773 C19.05845312 53.97444329 19.05387149 60.06046273 19.04882812 66.14648438 C19.03808859 78.09766689 19.02101068 90.04883144 19 102 C16.02077407 102.02683987 13.04178705 102.04676037 10.0625 102.0625 C9.21236328 102.07087891 8.36222656 102.07925781 7.48632812 102.08789062 C6.67744141 102.09111328 5.86855469 102.09433594 5.03515625 102.09765625 C4.2862915 102.10289307 3.53742676 102.10812988 2.76586914 102.11352539 C1 102 1 102 0 101 C-0.09534958 97.86440114 -0.12550879 94.75086387 -0.11352539 91.61499023 C-0.11367142 90.62973358 -0.11381744 89.64447693 -0.1139679 88.62936401 C-0.11326832 85.35575193 -0.10547385 82.08219596 -0.09765625 78.80859375 C-0.09579223 76.54557832 -0.09436825 74.28256249 -0.09336853 72.01954651 C-0.0895421 66.05021052 -0.07971075 60.08089868 -0.06866455 54.11157227 C-0.05845312 48.02555671 -0.05387149 41.93953727 -0.04882812 35.85351562 C-0.03808859 23.90233311 -0.02101068 11.95116856 0 0 Z " fill="#BA9976" transform="translate(101,210)"/>
<path d="M0 0 C1.36916565 0.00539291 1.36916565 0.00539291 2.76599121 0.01089478 C3.72198715 0.01074875 4.67798309 0.01060272 5.66294861 0.01045227 C8.83916452 0.01115181 12.01532259 0.01894614 15.19152832 0.02676392 C17.387283 0.02862795 19.58303809 0.03005192 21.77879333 0.03105164 C27.5705784 0.03487798 33.36233857 0.04470926 39.15411377 0.05575562 C45.05915998 0.06596724 50.9642102 0.07054872 56.8692627 0.07559204 C68.46497855 0.08633142 80.06066935 0.10392916 91.65637207 0.12442017 C91.65637207 6.39442017 91.65637207 12.66442017 91.65637207 19.12442017 C58.98637207 19.12442017 26.31637207 19.12442017 -7.34362793 19.12442017 C-7.34362793 0.01222214 -7.34362793 0.01222214 0 0 Z " fill="#AD8A6A" transform="translate(108.3436279296875,335.8755798339844)"/>
<path d="M0 0 C1.36916565 0.00539291 1.36916565 0.00539291 2.76599121 0.01089478 C3.72198715 0.01074875 4.67798309 0.01060272 5.66294861 0.01045227 C8.83916452 0.01115181 12.01532259 0.01894614 15.19152832 0.02676392 C17.387283 0.02862795 19.58303809 0.03005192 21.77879333 0.03105164 C27.5705784 0.03487798 33.36233857 0.04470926 39.15411377 0.05575562 C45.05915998 0.06596724 50.9642102 0.07054872 56.8692627 0.07559204 C68.46497855 0.08633142 80.06066935 0.10392916 91.65637207 0.12442017 C91.65637207 6.06442017 91.65637207 12.00442017 91.65637207 18.12442017 C58.98637207 18.12442017 26.31637207 18.12442017 -7.34362793 18.12442017 C-7.34362793 0.01222214 -7.34362793 0.01222214 0 0 Z " fill="#BC9B7A" transform="translate(108.3436279296875,314.8755798339844)"/>
<path d="M0 0 C3.37902579 1.18891648 5.30736213 2.19495312 7.63671875 4.90234375 C9.72819973 9.65462001 9.47306235 14.2410893 9.4375 19.375 C9.4674707 20.89867187 9.4674707 20.89867187 9.49804688 22.453125 C9.49389974 28.83970853 8.85345604 32.8386191 5 38 C0.78370019 40.35328362 -3.20428273 40.26359413 -7.87890625 39.6171875 C-11.21328036 38.64696446 -12.90886251 36.67926991 -15 34 C-17.10039074 29.79921851 -16.3180174 24.36559091 -16.375 19.75 C-16.41238281 18.61691406 -16.44976562 17.48382813 -16.48828125 16.31640625 C-16.58723347 6.93793448 -16.58723347 6.93793448 -13.6015625 3.265625 C-9.19514415 -0.57179639 -5.67193783 -0.52517943 0 0 Z " fill="#B19073" transform="translate(297,386)"/>
<path d="M0 0 C17 0 17 0 23 4 C25.16580027 8.33160053 24.31881606 14.05474144 24.375 18.8125 C24.41238281 20.00166016 24.44976562 21.19082031 24.48828125 22.41601562 C24.58729014 32.21239539 24.58729014 32.21239539 21.6640625 35.26171875 C14.33166171 40.04605651 10.77941555 38 0 38 C0 25.46 0 12.92 0 0 Z " fill="#AF8E71" transform="translate(347,387)"/>
<path d="M0 0 C19 0 19 0 24 4 C25.6033559 7.2067118 25.49604443 10.52124682 25 14 C23.88843696 16.31049784 22.61720298 17.97849628 21 20 C21.64453125 20.16242188 22.2890625 20.32484375 22.953125 20.4921875 C25 22 25 22 25.609375 25.6953125 C25.67585292 27.17112237 25.72193879 28.64796017 25.75 30.125 C25.77964844 30.87910156 25.80929688 31.63320313 25.83984375 32.41015625 C25.91057932 34.27285953 25.95754983 36.13643755 26 38 C22.7 38 19.4 38 16 38 C15.67 33.71 15.34 29.42 15 25 C12.525 24.01 12.525 24.01 10 23 C10 27.95 10 32.9 10 38 C6.7 38 3.4 38 0 38 C0 25.46 0 12.92 0 0 Z " fill="#B19174" transform="translate(79,387)"/>
<path d="M0 0 C2.97 0 5.94 0 9 0 C9.62958174 1.51894235 10.25340464 3.04027195 10.875 4.5625 C11.39707031 5.83287109 11.39707031 5.83287109 11.9296875 7.12890625 C13.13334763 10.35770257 14.05335056 13.68672696 15 17 C15.33 11.39 15.66 5.78 16 0 C18.64 0 21.28 0 24 0 C24 12.54 24 25.08 24 38 C21.03 38 18.06 38 15 38 C14.37273892 36.45925192 13.7483099 34.91735077 13.125 33.375 C12.77695313 32.51648438 12.42890625 31.65796875 12.0703125 30.7734375 C10.95478325 27.88283251 9.97979604 24.93938811 9 22 C8.67 26.95 8.34 31.9 8 37 C5.36 37 2.72 37 0 37 C0 24.79 0 12.58 0 0 Z " fill="#AF8D70" transform="translate(166,387)"/>
<path d="M0 0 C2.97 0 5.94 0 9 0 C9.33 4.29 9.66 8.58 10 13 C10.804375 11.040625 11.60875 9.08125 12.4375 7.0625 C14.875 1.125 14.875 1.125 16 0 C17.51928038 -0.07179964 19.04167482 -0.08392007 20.5625 -0.0625 C21.38878906 -0.05347656 22.21507812 -0.04445313 23.06640625 -0.03515625 C23.70449219 -0.02355469 24.34257812 -0.01195312 25 0 C23.57699119 4.91584861 21.3919935 9.04229686 18.828125 13.4375 C17.6828674 16.98131598 18.55559914 18.60439097 20 22 C20.49757812 23.18078125 20.99515625 24.3615625 21.5078125 25.578125 C22.32112743 27.43486348 23.14193377 29.28812068 23.96484375 31.140625 C26 35.79241071 26 35.79241071 26 38 C22.7 38 19.4 38 16 38 C14.35 34.04 12.7 30.08 11 26 C9.78306124 28.43387753 9.68040104 30.41838846 9.4375 33.125 C9.35371094 34.03507812 9.26992187 34.94515625 9.18359375 35.8828125 C9.12300781 36.58148438 9.06242187 37.28015625 9 38 C6.03 38 3.06 38 0 38 C0 25.46 0 12.92 0 0 Z " fill="#B08F73" transform="translate(108,387)"/>
<path d="M0 0 C3.63 0 7.26 0 11 0 C11.82590643 3.56443827 12.64901286 7.12945592 13.46875 10.6953125 C13.85540465 12.37271134 14.24363747 14.04974663 14.6328125 15.7265625 C15.32079486 18.69200371 16.00438071 21.65843514 16.6875 24.625 C16.91397217 25.59711426 17.14044434 26.56922852 17.3737793 27.57080078 C17.58429932 28.48845215 17.79481934 29.40610352 18.01171875 30.3515625 C18.20209717 31.17479004 18.39247559 31.99801758 18.58862305 32.84619141 C19 35 19 35 19 38 C16.03 38 13.06 38 10 38 C9.67 35.36 9.34 32.72 9 30 C6.36 30 3.72 30 1 30 C1 32.64 1 35.28 1 38 C-2.3 38 -5.6 38 -9 38 C-8.35022295 31.26959325 -6.81814106 24.95905397 -5.0625 18.4375 C-4.66514648 16.93413086 -4.66514648 16.93413086 -4.25976562 15.40039062 C-2.89355593 10.25083099 -1.48541327 5.11642348 0 0 Z " fill="#AE8E71" transform="translate(144,387)"/>
<path d="M0 0 C3.63 0 7.26 0 11 0 C11.82590643 3.56443827 12.64901286 7.12945592 13.46875 10.6953125 C13.85540465 12.37271134 14.24363747 14.04974663 14.6328125 15.7265625 C15.32079486 18.69200371 16.00438071 21.65843514 16.6875 24.625 C16.91397217 25.59711426 17.14044434 26.56922852 17.3737793 27.57080078 C17.58429932 28.48845215 17.79481934 29.40610352 18.01171875 30.3515625 C18.20209717 31.17479004 18.39247559 31.99801758 18.58862305 32.84619141 C19 35 19 35 19 38 C16.03 38 13.06 38 10 38 C9.67 35.36 9.34 32.72 9 30 C6.36 30 3.72 30 1 30 C1 32.31 1 34.62 1 37 C-1.97 37 -4.94 37 -8 37 C-6.83033477 28.88217413 -5.17190785 20.88802631 -3.4375 12.875 C-3.10455933 11.32703735 -3.10455933 11.32703735 -2.76489258 9.74780273 C-2.55243896 8.77657471 -2.33998535 7.80534668 -2.12109375 6.8046875 C-1.9295874 5.92796387 -1.73808105 5.05124023 -1.54077148 4.14794922 C-1 2 -1 2 0 0 Z " fill="#AE8C6F" transform="translate(58,387)"/>
<path d="M0 0 C0.66 0 1.32 0 2 0 C2 2.97 2 5.94 2 9 C11.57 9 21.14 9 31 9 C28 12 28 12 25.7734375 12.2578125 C24.98195313 12.21398437 24.19046875 12.17015625 23.375 12.125 C21.91778749 12.05426153 20.45891687 12.00581242 19 12 C18.67 12.33 18.34 12.66 18 13 C15.30345146 13.07319621 12.63308542 13.09242537 9.9375 13.0625 C8.79958008 13.05573242 8.79958008 13.05573242 7.63867188 13.04882812 C5.75908129 13.0370068 3.87953101 13.01907078 2 13 C2 13.99 2 14.98 2 16 C19.49 15.67 36.98 15.34 55 15 C53.02 14.01 51.04 13.02 49 12 C52.34939881 9.97441119 54.86962551 9.78261013 58.75 9.875 C59.73484375 9.89304687 60.7196875 9.91109375 61.734375 9.9296875 C62.85585937 9.96449219 62.85585937 9.96449219 64 10 C64 9.67 64 9.34 64 9 C68.29 9 72.58 9 77 9 C77 8.34 77 7.68 77 7 C76.01 6.505 76.01 6.505 75 6 C83.08251036 3.91419088 90.66715256 3.83661083 99 4 C99 8.29 99 12.58 99 17 C66.33 17 33.66 17 0 17 C0 11.39 0 5.78 0 0 Z " fill="#B69471" transform="translate(101,316)"/>
<path d="M0 0 C2.93835112 1.30788882 3.85011181 2.4091091 6 5 C6.875 8.8125 6.875 8.8125 7 12 C4.03 12 1.06 12 -2 12 C-2.33 10.68 -2.66 9.36 -3 8 C-4.32 8 -5.64 8 -7 8 C-6.68904303 11.11484021 -6.49227073 12.57562868 -4.07421875 14.66015625 C-3.28660156 15.12292969 -2.49898438 15.58570313 -1.6875 16.0625 C-0.47320312 16.83013672 -0.47320312 16.83013672 0.765625 17.61328125 C1.50296875 18.07089844 2.2403125 18.52851563 3 19 C5.5625 20.75 5.5625 20.75 7 23 C7.80354872 27.96508527 7.77991617 31.72613693 5.125 36.0625 C1.04019682 39.78687937 -2.72458894 39.32501745 -8.0703125 39.29296875 C-11.79114145 38.92088586 -13.58196602 37.83493639 -16 35 C-17.4783226 32.04335481 -17.06032783 29.25770263 -17 26 C-14.03 26 -11.06 26 -8 26 C-7.67 27.65 -7.34 29.3 -7 31 C-5.68 31 -4.36 31 -3 31 C-2.59740119 28.65058851 -2.59740119 28.65058851 -3 26 C-5.08107651 24.00822887 -5.08107651 24.00822887 -7.8125 22.4375 C-11.26237392 20.28195107 -13.92573771 18.55587821 -16 15 C-16.90574338 10.43864369 -16.59262126 6.94819402 -14.125 3 C-9.96130585 -0.91877096 -5.48929282 -0.73134529 0 0 Z " fill="#AF8F72" transform="translate(270,386)"/>
<path d="M0 0 C6.6 0 13.2 0 20 0 C20 2.64 20 5.28 20 8 C16.37 8 12.74 8 9 8 C9 9.98 9 11.96 9 14 C12.63 14 16.26 14 20 14 C20 16.64 20 19.28 20 22 C16.37 22 12.74 22 9 22 C9 24.64 9 27.28 9 30 C12.96 30 16.92 30 21 30 C21 32.64 21 35.28 21 38 C14.07 38 7.14 38 0 38 C0 25.46 0 12.92 0 0 Z " fill="#B19175" transform="translate(207,387)"/>
<path d="M0 0 C0 0.66 0 1.32 0 2 C1.18464844 1.83628906 2.36929688 1.67257812 3.58984375 1.50390625 C10.23691685 0.76534257 16.88329881 0.89308587 23.5625 0.9375 C25.50479492 0.94426758 25.50479492 0.94426758 27.48632812 0.95117188 C30.657601 0.96287399 33.82877546 0.97926887 37 1 C36.67 1.66 36.34 2.32 36 3 C34.68 3 33.36 3 32 3 C32 3.66 32 4.32 32 5 C38.27 5 44.54 5 51 5 C51 6.32 51 7.64 51 9 C44.52623916 9.05114343 38.05253134 9.08591773 31.57861328 9.10986328 C29.38100233 9.11985682 27.18340445 9.13345618 24.98583984 9.15087891 C1.54335226 9.3319431 1.54335226 9.3319431 -8 7 C-8 6.67 -8 6.34 -8 6 C-5.94921875 5.77213542 -3.8984375 5.54427083 -1.84765625 5.31640625 C0.01140229 5.18113386 0.01140229 5.18113386 1 4 C-3.455 3.01 -3.455 3.01 -8 2 C-8 2.66 -8 3.32 -8 4 C-8.5775 3.79375 -9.155 3.5875 -9.75 3.375 C-12.51967567 2.91338739 -13.64561267 3.57055055 -16 5 C-14.68 5.66 -13.36 6.32 -12 7 C-23.46204409 7.86230656 -34.54654751 8.01427032 -46 7 C-46 5.35 -46 3.7 -46 2 C-43.53767622 0.76883811 -41.75715475 0.79378181 -39.00390625 0.68359375 C-37.97837646 0.64161865 -36.95284668 0.59964355 -35.89624023 0.55639648 C-34.79610596 0.51716064 -33.69597168 0.4779248 -32.5625 0.4375 C-31.44625244 0.3950415 -30.33000488 0.35258301 -29.17993164 0.30883789 C-19.4501476 -0.03615053 -9.73436342 -0.10442106 0 0 Z " fill="#B08D6C" transform="translate(149,344)"/>
<path d="M0 0 C5.94 0 11.88 0 18 0 C18 0.66 18 1.32 18 2 C12.72 2 7.44 2 2 2 C2.33 23.45 2.66 44.9 3 67 C3.66 66.01 4.32 65.02 5 64 C5.66 64.66 6.32 65.32 7 66 C7.99 65.505 7.99 65.505 9 65 C9.33 69.62 9.66 74.24 10 79 C10.99 78.01 10.99 78.01 12 77 C13 78 13 78 13.11352539 80.22485352 C13.10828857 81.18319092 13.10305176 82.14152832 13.09765625 83.12890625 C13.09443359 84.16337891 13.09121094 85.19785156 13.08789062 86.26367188 C13.07951172 87.35228516 13.07113281 88.44089844 13.0625 89.5625 C13.05798828 90.65498047 13.05347656 91.74746094 13.04882812 92.87304688 C13.0369984 95.58205432 13.01906231 98.2910338 13 101 C8.71 101 4.42 101 0 101 C0 67.67 0 34.34 0 0 Z " fill="#AC8D6F" transform="translate(101,210)"/>
<path d="M0 0 C2.97 0 5.94 0 9 0 C9 33 9 66 9 100 C8.01 100 7.02 100 6 100 C4.92108929 93.00420594 4.85060642 86.13257353 4.875 79.0625 C4.87113281 77.91458984 4.86726562 76.76667969 4.86328125 75.58398438 C4.86457031 74.49537109 4.86585938 73.40675781 4.8671875 72.28515625 C4.86831543 71.29394775 4.86944336 70.30273926 4.87060547 69.28149414 C5 67 5 67 6 66 C6.44049018 57.64364216 5.83866595 49.31177859 5 41 C4.67 44.3 4.34 47.6 4 51 C3.67 51 3.34 51 3 51 C2.98018066 50.38068604 2.96036133 49.76137207 2.93994141 49.12329102 C2.84364769 46.26932611 2.73439903 43.41599143 2.625 40.5625 C2.57859375 39.10166992 2.57859375 39.10166992 2.53125 37.61132812 C2.34987229 33.09200014 2.06687792 28.83342202 0.96875 24.4375 C-0.26824583 19.42254555 -0.22305601 14.5778979 -0.125 9.4375 C-0.11597656 8.52419922 -0.10695312 7.61089844 -0.09765625 6.66992188 C-0.07437433 4.44649819 -0.0385157 2.22321198 0 0 Z " fill="#B49477" transform="translate(133,212)"/>
<path d="M0 0 C0.33 0 0.66 0 1 0 C1 2.64 1 5.28 1 8 C3.81288705 7.85980308 6.62516885 7.71312045 9.4375 7.5625 C10.23994141 7.52318359 11.04238281 7.48386719 11.86914062 7.44335938 C15.75239561 7.5945704 15.75239561 7.5945704 19 6 C25.35287401 4.94854053 31.5727195 4.87987611 38 4.9375 C38.96550781 4.94201172 39.93101562 4.94652344 40.92578125 4.95117188 C43.28392089 4.96284583 45.64192602 4.97921979 48 5 C48 5.99 48 6.98 48 8 C32.49 8.66 16.98 9.32 1 10 C1 11.65 1 13.3 1 15 C16.9219374 15.93123116 16.9219374 15.93123116 32.07421875 11.875 C34 11 34 11 37 11 C37.66 11.33 38.32 11.66 39 12 C39 11.34 39 10.68 39 10 C45.93 10.495 45.93 10.495 53 11 C53 11.33 53 11.66 53 12 C52.030625 12.309375 51.06125 12.61875 50.0625 12.9375 C47.15934208 13.69523342 47.15934208 13.69523342 46 15 C49.33707256 15.74068752 52.46642545 16.14087595 55.88208008 16.20532227 C56.82267776 16.22526749 57.76327545 16.24521271 58.7323761 16.26576233 C59.7346373 16.28247482 60.7368985 16.29918732 61.76953125 16.31640625 C63.32374031 16.3475779 63.32374031 16.3475779 64.90934753 16.37937927 C68.21033265 16.4446213 71.51139549 16.50364179 74.8125 16.5625 C77.05404441 16.60570932 79.29558103 16.64932438 81.53710938 16.69335938 C87.02465807 16.80027667 92.51228361 16.90208962 98 17 C98 17.66 98 18.32 98 19 C65.33 19 32.66 19 -1 19 C-1 1 -1 1 0 0 Z " fill="#977C69" transform="translate(102,336)"/>
<path d="M0 0 C5.94 0 11.88 0 18 0 C18 0.66 18 1.32 18 2 C12.72 2 7.44 2 2 2 C2.33 19.49 2.66 36.98 3 55 C3.66 53.68 4.32 52.36 5 51 C8.12763932 55.69145898 9.25136009 58.36127069 9.1953125 64.078125 C9.18564453 65.81835938 9.18564453 65.81835938 9.17578125 67.59375 C9.15902344 68.8003125 9.14226562 70.006875 9.125 71.25 C9.11597656 72.47203125 9.10695312 73.6940625 9.09765625 74.953125 C9.07409513 77.96894782 9.04119706 80.98437492 9 84 C7.515 84.495 7.515 84.495 6 85 C6 90.28 6 95.56 6 101 C4.02 101 2.04 101 0 101 C0 67.67 0 34.34 0 0 Z " fill="#B5936F" transform="translate(144,210)"/>
<path d="M0 0 C2.97 0 5.94 0 9 0 C9 9.9 9 19.8 9 30 C12.96 30 16.92 30 21 30 C21 32.64 21 35.28 21 38 C14.07 38 7.14 38 0 38 C0 25.46 0 12.92 0 0 Z " fill="#B29276" transform="translate(309,387)"/>
<path d="M0 0 C2.97 0 5.94 0 9 0 C9 9.9 9 19.8 9 30 C12.63 30 16.26 30 20 30 C20 32.64 20 35.28 20 38 C13.4 38 6.8 38 0 38 C0 25.46 0 12.92 0 0 Z " fill="#AE8E71" transform="translate(232,387)"/>
<path d="M0 0 C3.3 0 6.6 0 10 0 C10 12.54 10 25.08 10 38 C6.7 38 3.4 38 0 38 C0 25.46 0 12.92 0 0 Z " fill="#B5967B" transform="translate(332,387)"/>
<path d="M0 0 C32.67 0 65.34 0 99 0 C99 5.94 99 11.88 99 18 C92.73 18 86.46 18 80 18 C80 17.67 80 17.34 80 17 C82.24932227 16.8045375 84.49950142 16.61891774 86.75 16.4375 C88.00296875 16.33308594 89.2559375 16.22867187 90.546875 16.12109375 C93.39452364 16.02123277 95.34286067 16.09415705 98 17 C98 16.01 98 15.02 98 14 C91.73 14 85.46 14 79 14 C79 13.34 79 12.68 79 12 C78.01 11.67 77.02 11.34 76 11 C76 10.34 76 9.68 76 9 C78.97 9.495 78.97 9.495 82 10 C82.33 9.34 82.66 8.68 83 8 C87.95 8 92.9 8 98 8 C98 7.01 98 6.02 98 5 C94.04 5 90.08 5 86 5 C86 4.34 86 3.68 86 3 C85.30605133 2.98969254 84.61210266 2.97938507 83.89712524 2.96876526 C77.22404484 2.86909746 70.55101774 2.7664086 63.87803078 2.66066074 C60.45077245 2.60644605 57.02350587 2.55323776 53.59619141 2.50268555 C35.71837864 2.23639227 17.86292996 1.78536966 0 1 C0 0.67 0 0.34 0 0 Z " fill="#BEA386" transform="translate(102,357)"/>
<path d="M0 0 C32.67 0 65.34 0 99 0 C100.17426264 2.34852528 100.11508173 3.73774065 100.09765625 6.3515625 C100.09282227 7.62773437 100.09282227 7.62773437 100.08789062 8.9296875 C100.07532227 10.26386719 100.07532227 10.26386719 100.0625 11.625 C100.05798828 12.5221875 100.05347656 13.419375 100.04882812 14.34375 C100.03702591 16.56256648 100.02056155 18.78125018 100 21 C99.67 21 99.34 21 99 21 C99 15.06 99 9.12 99 3 C66.66 3 34.32 3 1 3 C0.67 2.01 0.34 1.02 0 0 Z " fill="#ECE0D5" transform="translate(101,333)"/>
<path d="M0 0 C0.66 0 1.32 0 2 0 C2 30.03 2 60.06 2 91 C-5.26 91 -12.52 91 -20 91 C-20 63.94 -20 36.88 -20 9 C-19.67 9 -19.34 9 -19 9 C-19 35.4 -19 61.8 -19 89 C-12.73 89 -6.46 89 0 89 C0 59.63 0 30.26 0 0 Z " fill="#2D6292" transform="translate(226,286)"/>
<path d="M0 0 C0 3.63 0 7.26 0 11 C-6.27 11 -12.54 11 -19 11 C-19 10.34 -19 9.68 -19 9 C-17.68 8.67 -16.36 8.34 -15 8 C-16.08539063 8.01160156 -17.17078125 8.02320313 -18.2890625 8.03515625 C-19.73437327 8.04454138 -21.17968591 8.05364081 -22.625 8.0625 C-23.69427734 8.07506836 -23.69427734 8.07506836 -24.78515625 8.08789062 C-28.97344438 8.10710296 -32.8728462 7.8267327 -37 7 C-34 5 -34 5 -30.5625 4.5625 C-27.07938069 4.33785637 -27.07938069 4.33785637 -25.30078125 2.5078125 C-21.93860539 0.30441712 -18.52577957 0.42979148 -14.625 0.3125 C-13.8825 0.27833984 -13.14 0.24417969 -12.375 0.20898438 C-8.24851776 0.03036456 -4.1307469 -0.03278371 0 0 Z " fill="#A78364" transform="translate(200,338)"/>
<path d="M0 0 C5.99160594 -0.05002947 11.98308606 -0.0860126 17.97485352 -0.10986328 C20.00645063 -0.11982288 22.03803378 -0.13339544 24.06958008 -0.15087891 C35.89788038 -0.25000689 47.32513445 -0.04313026 59 2 C59 2.66 59 3.32 59 4 C55 4 51 4 47 4 C45.62864378 4.06780144 44.25758232 4.14162687 42.88671875 4.21875 C34.0126963 4.70007918 25.22423353 5.12545738 16.3359375 4.83984375 C13.80563872 4.75630552 13.80563872 4.75630552 12 7 C9.3984375 7.1953125 9.3984375 7.1953125 6.375 7.125 C4.87066406 7.09792969 4.87066406 7.09792969 3.3359375 7.0703125 C2.56507812 7.04710937 1.79421875 7.02390625 1 7 C0.67 4.69 0.34 2.38 0 0 Z " fill="#B79571" transform="translate(103,316)"/>
<path d="M0 0 C5.94 0 11.88 0 18 0 C18 0.66 18 1.32 18 2 C12.72 2 7.44 2 2 2 C2 34.67 2 67.34 2 101 C1.34 101 0.68 101 0 101 C0 67.67 0 34.34 0 0 Z " fill="#9F8169" transform="translate(144,210)"/>
<path d="M0 0 C0.66 0 1.32 0 2 0 C2 2.97 2 5.94 2 9 C11.57 9 21.14 9 31 9 C28 12 28 12 25.7734375 12.2578125 C24.98195313 12.21398437 24.19046875 12.17015625 23.375 12.125 C21.91778749 12.05426153 20.45891687 12.00581242 19 12 C18.67 12.33 18.34 12.66 18 13 C15.30345146 13.07319621 12.63308542 13.09242537 9.9375 13.0625 C8.79958008 13.05573242 8.79958008 13.05573242 7.63867188 13.04882812 C5.75908129 13.0370068 3.87953101 13.01907078 2 13 C2 13.99 2 14.98 2 16 C33.68 16 65.36 16 98 16 C98 16.33 98 16.66 98 17 C65.66 17 33.32 17 0 17 C0 11.39 0 5.78 0 0 Z " fill="#9C7F65" transform="translate(101,316)"/>
<path d="M0 0 C1.93742341 -0.02703381 3.87495479 -0.04641125 5.8125 -0.0625 C6.89144531 -0.07410156 7.97039062 -0.08570313 9.08203125 -0.09765625 C12 0 12 0 15 1 C15 1.66 15 2.32 15 3 C21.27 3 27.54 3 34 3 C34 3.99 34 4.98 34 6 C-7.50626959 8.66248694 -7.50626959 8.66248694 -16 3 C-14.00383446 1.00383446 -10.18298037 1.59016573 -7.4375 1.4375 C-6.37112305 1.37272461 -6.37112305 1.37272461 -5.28320312 1.30664062 C-3.52238088 1.20028223 -1.7612168 1.09961154 0 1 C0 0.67 0 0.34 0 0 Z " fill="#B4926F" transform="translate(166,368)"/>
<path d="M0 0 C0 0.33 0 0.66 0 1 C18.81 1.495 18.81 1.495 38 2 C38 7.94 38 13.88 38 20 C37.67 20 37.34 20 37 20 C37 14.39 37 8.78 37 3 C-12.005 3.495 -12.005 3.495 -62 4 C-62 3.34 -62 2.68 -62 2 C-54.41 2 -46.82 2 -39 2 C-39 1.34 -39 0.68 -39 0 C-25.88977782 -0.96398692 -13.11349219 -0.8981844 0 0 Z " fill="#FBF8EF" transform="translate(163,312)"/>
<path d="M0 0 C3 1 3 1 5 2 C5 1.34 5 0.68 5 0 C11.93 0.495 11.93 0.495 19 1 C19 1.33 19 1.66 19 2 C18.030625 2.309375 17.06125 2.61875 16.0625 2.9375 C13.15934208 3.69523342 13.15934208 3.69523342 12 5 C14.475 5.495 14.475 5.495 17 6 C17 6.33 17 6.66 17 7 C0.5 7 -16 7 -33 7 C-33 6.34 -33 5.68 -33 5 C-32.39115967 5.02094727 -31.78231934 5.04189453 -31.1550293 5.06347656 C-15.07208514 5.84510957 -15.07208514 5.84510957 0 1 C0 0.67 0 0.34 0 0 Z " fill="#A68161" transform="translate(136,346)"/>
<path d="M0 0 C1.32 0.33 2.64 0.66 4 1 C4 8.92 4 16.84 4 25 C2.35 25 0.7 25 -1 25 C-2.88519529 21.22960943 -2.18475994 16.64845405 -2.1875 12.5 C-2.19974609 11.52417969 -2.21199219 10.54835938 -2.22460938 9.54296875 C-2.22654297 8.61097656 -2.22847656 7.67898438 -2.23046875 6.71875 C-2.23457764 5.86216797 -2.23868652 5.00558594 -2.24291992 4.12304688 C-2 2 -2 2 0 0 Z " fill="#FDFAF6" transform="translate(292,393)"/>
<path d="M0 0 C0.99 0 1.98 0 3 0 C3 0.66 3 1.32 3 2 C4.65 2 6.3 2 8 2 C8 4.64 8 7.28 8 10 C8.66 10 9.32 10 10 10 C10 7.69 10 5.38 10 3 C11.65 3 13.3 3 15 3 C15 2.34 15 1.68 15 1 C15.66 1 16.32 1 17 1 C18.28317892 4.84953676 18.06643637 7.94738135 18 12 C17.01 12 16.02 12 15 12 C15 9.69 15 7.38 15 5 C14.34 5 13.68 5 13 5 C13 7.31 13 9.62 13 12 C8.66666667 12 4.33333333 12 0 12 C-0.19573608 10.56359829 -0.38127816 9.12580496 -0.5625 7.6875 C-0.66691406 6.88699219 -0.77132813 6.08648437 -0.87890625 5.26171875 C-1 3 -1 3 0 0 Z " fill="#416B90" transform="translate(328,434)"/>
<path d="M0 0 C1.1653125 0.01417969 2.330625 0.02835937 3.53125 0.04296875 C5.27921875 0.05263672 5.27921875 0.05263672 7.0625 0.0625 C10.03125 0.23046875 10.03125 0.23046875 12.03125 1.23046875 C12.07366723 3.5634165 12.07217937 5.89749442 12.03125 8.23046875 C11.03125 9.23046875 11.03125 9.23046875 8.65625 9.41796875 C6.03125 9.23046875 6.03125 9.23046875 3.03125 7.23046875 C2.70125 8.22046875 2.37125 9.21046875 2.03125 10.23046875 C-0.34375 10.41796875 -0.34375 10.41796875 -2.96875 10.23046875 C-5.11790785 7.00673198 -5.35161803 5.96343201 -4.96875 2.23046875 C-2.96875 0.23046875 -2.96875 0.23046875 0 0 Z " fill="#D1E7F0" transform="translate(184.96875,436.76953125)"/>
<path d="M0 0 C1.32 0 2.64 0 4 0 C4.33 0.99 4.66 1.98 5 3 C6.7015625 2.9690625 6.7015625 2.9690625 8.4375 2.9375 C12 3 12 3 13 4 C13.14115161 6.67058851 13.04247107 9.32432238 13 12 C8.59085217 13.10228696 4.51617599 13.07654536 0 13 C0 8.71 0 4.42 0 0 Z " fill="#EEFEFF" transform="translate(294,434)"/>
<path d="M0 0 C5 1 5 1 6 2 C6.24966567 5.1382345 6.18521791 8.29049613 6.1875 11.4375 C6.19974609 12.32244141 6.21199219 13.20738281 6.22460938 14.11914062 C6.22654297 14.96541016 6.22847656 15.81167969 6.23046875 16.68359375 C6.23457764 17.46275146 6.23868652 18.24190918 6.24291992 19.04467773 C6 21 6 21 4 23 C2.68 23 1.36 23 0 23 C0 15.41 0 7.82 0 0 Z " fill="#FCFAF5" transform="translate(356,394)"/>
<path d="M0 0 C0.78375 0.04125 1.5675 0.0825 2.375 0.125 C2.705 1.115 3.035 2.105 3.375 3.125 C4.035 3.125 4.695 3.125 5.375 3.125 C5.375 2.465 5.375 1.805 5.375 1.125 C8.25 0.5 8.25 0.5 11.375 0.125 C13.375 2.125 13.375 2.125 13.625 4.625 C13.375 7.125 13.375 7.125 11.375 9.125 C8.25 8.75 8.25 8.75 5.375 8.125 C5.375 7.465 5.375 6.805 5.375 6.125 C4.715 6.125 4.055 6.125 3.375 6.125 C3.375 6.785 3.375 7.445 3.375 8.125 C0.5 8.75 0.5 8.75 -2.625 9.125 C-4.625 7.125 -4.625 7.125 -4.875 4.625 C-4.51649553 1.03995533 -3.59522993 0.17120143 0 0 Z " fill="#33628C" transform="translate(114.625,436.875)"/>
<path d="M0 0 C0.33 0 0.66 0 1 0 C1 2.64 1 5.28 1 8 C3.81288705 7.85980308 6.62516885 7.71312045 9.4375 7.5625 C10.23994141 7.52318359 11.04238281 7.48386719 11.86914062 7.44335938 C15.75239561 7.5945704 15.75239561 7.5945704 19 6 C25.35287401 4.94854053 31.5727195 4.87987611 38 4.9375 C38.96550781 4.94201172 39.93101562 4.94652344 40.92578125 4.95117188 C43.28392089 4.96284583 45.64192602 4.97921979 48 5 C48 5.99 48 6.98 48 8 C32.49 8.66 16.98 9.32 1 10 C1 11.65 1 13.3 1 15 C0.67 15 0.34 15 0 15 C0 10.05 0 5.1 0 0 Z " fill="#A17D5E" transform="translate(102,336)"/>
<path d="M0 0 C0.66 0 1.32 0 2 0 C1.99476318 0.68513672 1.98952637 1.37027344 1.98413086 2.07617188 C1.96318555 5.21743837 1.9502844 8.35869011 1.9375 11.5 C1.92912109 12.57765625 1.92074219 13.6553125 1.91210938 14.765625 C1.89428115 20.61328382 2.10894037 26.21863671 3 32 C3.66 32 4.32 32 5 32 C5 34.31 5 36.62 5 39 C5.66 39 6.32 39 7 39 C6.67 43.29 6.34 47.58 6 52 C3.05413171 47.58119757 2.9014384 45.32232661 3 40 C2.34 40 1.68 40 1 40 C-0.63945963 36.72108075 -0.12030178 33.09386466 -0.09765625 29.4921875 C-0.0962413 28.65156769 -0.09482635 27.81094788 -0.09336853 26.94485474 C-0.08776237 24.25486725 -0.07520886 21.56496241 -0.0625 18.875 C-0.05748579 17.05338662 -0.05292275 15.23177193 -0.04882812 13.41015625 C-0.03779094 8.94007223 -0.0205222 4.47005014 0 0 Z " fill="#A58061" transform="translate(124,212)"/>
<path d="M0 0 C1.90072266 0.02126953 1.90072266 0.02126953 3.83984375 0.04296875 C5.74443359 0.05263672 5.74443359 0.05263672 7.6875 0.0625 C10.77734375 0.23046875 10.77734375 0.23046875 11.77734375 1.23046875 C11.91849536 3.90105726 11.81981482 6.55479113 11.77734375 9.23046875 C11.11734375 9.23046875 10.45734375 9.23046875 9.77734375 9.23046875 C9.77734375 6.92046875 9.77734375 4.61046875 9.77734375 2.23046875 C8.78734375 2.23046875 7.79734375 2.23046875 6.77734375 2.23046875 C6.77734375 4.54046875 6.77734375 6.85046875 6.77734375 9.23046875 C5.15243421 9.25745064 3.52739742 9.27685632 1.90234375 9.29296875 C0.54496094 9.31037109 0.54496094 9.31037109 -0.83984375 9.328125 C-3.22265625 9.23046875 -3.22265625 9.23046875 -5.22265625 8.23046875 C-5.34765625 5.35546875 -5.34765625 5.35546875 -5.22265625 2.23046875 C-3.22265625 0.23046875 -3.22265625 0.23046875 0 0 Z " fill="#537DA0" transform="translate(228.22265625,436.76953125)"/>
<path d="M0 0 C0.33 0 0.66 0 1 0 C1.06058594 1.20398438 1.12117187 2.40796875 1.18359375 3.6484375 C1.26799732 5.22397077 1.35264541 6.79949096 1.4375 8.375 C1.47681641 9.1690625 1.51613281 9.963125 1.55664062 10.78125 C1.68893404 15.02601221 1.68893404 15.02601221 3 19 C3.23426397 23.264669 3.22837645 27.53313257 3.24023438 31.8034668 C3.24994745 33.92601601 3.28097427 36.04759968 3.3125 38.16992188 C3.31902955 39.51822342 3.32428021 40.86653188 3.328125 42.21484375 C3.3374707 43.44323975 3.34681641 44.67163574 3.35644531 45.93725586 C3 49 3 49 1.47949219 50.92407227 C0.74714355 51.45665649 0.74714355 51.45665649 0 52 C0 47.66666667 0 43.33333333 0 39 C-0.11807092 36.87472348 -0.2363658 34.74945909 -0.35595703 32.62426758 C-0.79168011 24.68598385 -1.1055598 16.76354256 -1.125 8.8125 C-1.12951172 8.04099609 -1.13402344 7.26949219 -1.13867188 6.47460938 C-1.12403951 1.12403951 -1.12403951 1.12403951 0 0 Z " fill="#B6946F" transform="translate(158,221)"/>
<path d="M0 0 C0.66 0 1.32 0 2 0 C2.02505615 0.59538574 2.0501123 1.19077148 2.07592773 1.80419922 C2.19177494 4.49469136 2.31455196 7.1848234 2.4375 9.875 C2.47681641 10.81214844 2.51613281 11.74929687 2.55664062 12.71484375 C2.59853516 13.61074219 2.64042969 14.50664062 2.68359375 15.4296875 C2.72025146 16.25710449 2.75690918 17.08452148 2.79467773 17.93701172 C2.88238327 20.06179429 2.88238327 20.06179429 4 22 C4.09703235 23.8886523 4.13076264 25.78073286 4.1328125 27.671875 C4.13474609 29.38117188 4.13474609 29.38117188 4.13671875 31.125 C4.13285156 32.32125 4.12898437 33.5175 4.125 34.75 C4.12886719 35.93078125 4.13273438 37.1115625 4.13671875 38.328125 C4.13542969 39.4728125 4.13414062 40.6175 4.1328125 41.796875 C4.13168457 42.84198242 4.13055664 43.88708984 4.12939453 44.96386719 C3.99790698 48.04911095 3.57072579 50.96784213 3 54 C2.67 54 2.34 54 2 54 C1.97494385 53.23856689 1.9498877 52.47713379 1.92407227 51.69262695 C1.80780952 48.23242624 1.68522022 44.77247746 1.5625 41.3125 C1.52318359 40.11431641 1.48386719 38.91613281 1.44335938 37.68164062 C1.40146484 36.52470703 1.35957031 35.36777344 1.31640625 34.17578125 C1.27974854 33.11270752 1.24309082 32.04963379 1.20532227 30.9543457 C1.06784383 28.05276282 1.06784383 28.05276282 0.48632812 25.45898438 C-0.05130082 22.74061152 -0.11312896 20.25008388 -0.09765625 17.48046875 C-0.09443359 16.45888672 -0.09121094 15.43730469 -0.08789062 14.38476562 C-0.07951172 13.32966797 -0.07113281 12.27457031 -0.0625 11.1875 C-0.05798828 10.11306641 -0.05347656 9.03863281 -0.04882812 7.93164062 C-0.03707729 5.28770317 -0.02064787 2.64388048 0 0 Z " fill="#A17D5E" transform="translate(131,212)"/>
<path d="M0 0 C17.49 0 34.98 0 53 0 C53 0.66 53 1.32 53 2 C48.90452817 2.76957271 45.03225482 3.12826193 40.8671875 3.1328125 C39.73152344 3.13410156 38.59585938 3.13539063 37.42578125 3.13671875 C36.25402344 3.13285156 35.08226562 3.12898438 33.875 3.125 C32.10576172 3.13080078 32.10576172 3.13080078 30.30078125 3.13671875 C29.16769531 3.13542969 28.03460938 3.13414062 26.8671875 3.1328125 C25.83706543 3.13168457 24.80694336 3.13055664 23.74560547 3.12939453 C21.30642361 3.01444109 19.33949235 2.6330711 17 2 C15.63323368 1.86070644 14.2625433 1.75634699 12.890625 1.68359375 C12.13652344 1.64169922 11.38242188 1.59980469 10.60546875 1.55664062 C9.43951172 1.49766602 9.43951172 1.49766602 8.25 1.4375 C7.06083984 1.37272461 7.06083984 1.37272461 5.84765625 1.30664062 C3.89862185 1.20097009 1.94933252 1.10002034 0 1 C0 0.67 0 0.34 0 0 Z " fill="#B29275" transform="translate(147,336)"/>
<path d="M0 0 C0.99 0 1.98 0 3 0 C3.33 1.65 3.66 3.3 4 5 C5.32 4.34 6.64 3.68 8 3 C7.79375 3.7425 7.5875 4.485 7.375 5.25 C6.95591249 8.32330841 7.38050989 9.42786866 9 12 C7.68 11.67 6.36 11.34 5 11 C5 10.34 5 9.68 5 9 C4.34 9 3.68 9 3 9 C3 9.99 3 10.98 3 12 C2.01 12 1.02 12 0 12 C0 10.02 0 8.04 0 6 C-0.99 6 -1.98 6 -3 6 C-3 7.98 -3 9.96 -3 12 C-3.99 12 -4.98 12 -6 12 C-6 9.03 -6 6.06 -6 3 C-4.02 3 -2.04 3 0 3 C0 2.01 0 1.02 0 0 Z " fill="#215685" transform="translate(273,434)"/>
<path d="M0 0 C0.66 0 1.32 0 2 0 C2 0.66 2 1.32 2 2 C2.66 2.33 3.32 2.66 4 3 C3.34 4.98 2.68 6.96 2 9 C2.66 9 3.32 9 4 9 C4 9.66 4 10.32 4 11 C2.56359829 11.19573608 1.12580496 11.38127816 -0.3125 11.5625 C-1.11300781 11.66691406 -1.91351563 11.77132813 -2.73828125 11.87890625 C-5 12 -5 12 -8 11 C-7.814375 10.195625 -7.62875 9.39125 -7.4375 8.5625 C-7.293125 7.716875 -7.14875 6.87125 -7 6 C-7.33 5.67 -7.66 5.34 -8 5 C-7.67 4.01 -7.34 3.02 -7 2 C-5.02 2 -3.04 2 -1 2 C-0.67 1.34 -0.34 0.68 0 0 Z " fill="#C8E2ED" transform="translate(213,435)"/>
<path d="M0 0 C2.64 0 5.28 0 8 0 C7.67 4.29 7.34 8.58 7 13 C5.02 13 3.04 13 1 13 C0.63631108 11.39796533 0.28438048 9.79325797 -0.0625 8.1875 C-0.25972656 7.29417969 -0.45695312 6.40085937 -0.66015625 5.48046875 C-1 3 -1 3 0 0 Z " fill="#DCF1F5" transform="translate(318,434)"/>
<path d="M0 0 C5 4 5 4 5.48828125 7.890625 C5.45523738 9.3445554 5.39586963 10.79808575 5.3125 12.25 C5.28994141 12.99507813 5.26738281 13.74015625 5.24414062 14.5078125 C5.18543561 16.339409 5.09575757 18.16996653 5 20 C3.35 19.67 1.7 19.34 0 19 C0 12.73 0 6.46 0 0 Z " fill="#A48162" transform="translate(128,292)"/>
<path d="M0 0 C0.99 0 1.98 0 3 0 C3 3.96 3 7.92 3 12 C0.66705225 12.04241723 -1.66702567 12.04092937 -4 12 C-5 11 -5 11 -5.0625 7.4375 C-5.041875 6.303125 -5.02125 5.16875 -5 4 C-3.35 3.67 -1.7 3.34 0 3 C0 2.01 0 1.02 0 0 Z " fill="#386790" transform="translate(167,434)"/>
<path d="M0 0 C0.99 0 1.98 0 3 0 C3 3.96 3 7.92 3 12 C0.66705225 12.04241723 -1.66702567 12.04092937 -4 12 C-5 11 -5 11 -5.0625 7.4375 C-5.041875 6.303125 -5.02125 5.16875 -5 4 C-3.35 3.67 -1.7 3.34 0 3 C0 2.01 0 1.02 0 0 Z " fill="#48759C" transform="translate(135,434)"/>
<path d="M0 0 C1.28132813 0.00902344 2.56265625 0.01804687 3.8828125 0.02734375 C4.87023437 0.03894531 5.85765625 0.05054688 6.875 0.0625 C6.545 0.7225 6.215 1.3825 5.875 2.0625 C9.505 2.0625 13.135 2.0625 16.875 2.0625 C14.875 4.0625 14.875 4.0625 12.44482422 4.28955078 C11.4498291 4.27907715 10.45483398 4.26860352 9.4296875 4.2578125 C8.35332031 4.25136719 7.27695313 4.24492187 6.16796875 4.23828125 C5.04003906 4.22152344 3.91210938 4.20476562 2.75 4.1875 C1.61433594 4.17847656 0.47867188 4.16945313 -0.69140625 4.16015625 C-3.50281299 4.13653098 -6.31380298 4.10359013 -9.125 4.0625 C-9.125 3.0725 -9.125 2.0825 -9.125 1.0625 C-6.12186252 -0.43906874 -3.33432478 -0.03031204 0 0 Z " fill="#AB8868" transform="translate(112.125,344.9375)"/>
<path d="M0 0 C0.99 0 1.98 0 3 0 C3.33 0.66 3.66 1.32 4 2 C4.33 1.34 4.66 0.68 5 0 C5.598125 0.185625 6.19625 0.37125 6.8125 0.5625 C9.16408762 1.22093687 9.16408762 1.22093687 12 0 C11.34 2.97 10.68 5.94 10 9 C9.01 9 8.02 9 7 9 C6.67 8.34 6.34 7.68 6 7 C5.67 7.66 5.34 8.32 5 9 C4.01 9 3.02 9 2 9 C1.34 6.03 0.68 3.06 0 0 Z " fill="#336089" transform="translate(97,437)"/>
<path d="M0 0 C0.99 0 1.98 0 3 0 C3 0.66 3 1.32 3 2 C4.65 2 6.3 2 8 2 C8 4.64 8 7.28 8 10 C7.67 10 7.34 10 7 10 C7 7.69 7 5.38 7 3 C6.34 3 5.68 3 5 3 C5.020625 4.11375 5.04125 5.2275 5.0625 6.375 C5 10 5 10 4 12 C2.68 12 1.36 12 0 12 C-0.19573608 10.56359829 -0.38127816 9.12580496 -0.5625 7.6875 C-0.66691406 6.88699219 -0.77132813 6.08648437 -0.87890625 5.26171875 C-1 3 -1 3 0 0 Z " fill="#D5E9F2" transform="translate(328,434)"/>
<path d="M0 0 C3.125 0.375 3.125 0.375 6 1 C6.6875 3.3125 6.6875 3.3125 7 6 C5.875 7.875 5.875 7.875 4 9 C-0.42105263 8.57894737 -0.42105263 8.57894737 -2 7 C-2.1875 4.5625 -2.1875 4.5625 -2 2 C-1.34 1.34 -0.68 0.68 0 0 Z " fill="#2F5F88" transform="translate(60,437)"/>
<path d="M0 0 C2.4375 0.1875 2.4375 0.1875 3.4375 1.1875 C3.5625 4.6875 3.5625 4.6875 3.4375 8.1875 C2.4375 9.1875 2.4375 9.1875 0 9.375 C-2.5625 9.1875 -2.5625 9.1875 -4.5625 7.1875 C-4.8125 4.6875 -4.8125 4.6875 -4.5625 2.1875 C-2.5625 0.1875 -2.5625 0.1875 0 0 Z " fill="#36628A" transform="translate(261.5625,436.8125)"/>
<path d="M0 0 C3.125 0.375 3.125 0.375 6 1 C6.04241723 3.33294775 6.04092937 5.66702567 6 8 C5 9 5 9 2.5625 9.1875 C0 9 0 9 -2 7 C-2.25 4.5 -2.25 4.5 -2 2 C-1.34 1.34 -0.68 0.68 0 0 Z " fill="#2F5B83" transform="translate(191,437)"/>
<path d="M0 0 C1.16144531 0.00902344 2.32289063 0.01804687 3.51953125 0.02734375 C4.39996094 0.03894531 5.28039062 0.05054688 6.1875 0.0625 C6.1875 1.3825 6.1875 2.7025 6.1875 4.0625 C-0.76503862 5.10600941 -5.5754069 5.52755172 -11.8125 2.0625 C-11.8125 1.7325 -11.8125 1.4025 -11.8125 1.0625 C-7.81454108 0.10630267 -4.10446078 -0.0414592 0 0 Z " fill="#AE8B6B" transform="translate(193.8125,339.9375)"/>
<path d="M0 0 C4.55555556 0.55555556 4.55555556 0.55555556 6 2 C6.04080783 3.99958364 6.04254356 6.00045254 6 8 C3.125 8.625 3.125 8.625 0 9 C-2 7 -2 7 -2.25 4.5 C-2 2 -2 2 0 0 Z " fill="#255783" transform="translate(354,437)"/>
<path d="M0 0 C0.66 0 1.32 0 2 0 C2.33 0.99 2.66 1.98 3 3 C3.33 2.01 3.66 1.02 4 0 C4.99 0 5.98 0 7 0 C7 1.32 7 2.64 7 4 C7.66 4 8.32 4 9 4 C9 2.68 9 1.36 9 0 C9.66 0 10.32 0 11 0 C10.34 2.97 9.68 5.94 9 9 C8.34 9 7.68 9 7 9 C6.67 8.01 6.34 7.02 6 6 C5.67 6.99 5.34 7.98 5 9 C3.68 8.67 2.36 8.34 1 8 C0.67 5.36 0.34 2.72 0 0 Z " fill="#316089" transform="translate(245,437)"/>
<path d="M0 0 C4.29072737 4.29072737 3.05669158 12.82958671 3.0625 18.5625 C3.04660463 20.70837559 3.02747059 22.85424137 3 25 C2.34 25 1.68 25 1 25 C0.17463655 19.28094617 -0.12753701 13.7732851 -0.0625 8 C-0.05798828 7.22527344 -0.05347656 6.45054687 -0.04882812 5.65234375 C-0.03719758 3.76819476 -0.01926906 1.88408635 0 0 Z " fill="#B4926E" transform="translate(155,287)"/>
<path d="M0 0 C1.32 0 2.64 0 4 0 C4 4.29 4 8.58 4 13 C2.68 13 1.36 13 0 13 C0 8.71 0 4.42 0 0 Z " fill="#81A2BB" transform="translate(90,434)"/>
<path d="M0 0 C0.66 0.33 1.32 0.66 2 1 C2 8.26 2 15.52 2 23 C0.02 22.34 -1.96 21.68 -4 21 C-4.33 20.34 -4.66 19.68 -5 19 C-3.68 19.33 -2.36 19.66 -1 20 C-0.67 13.4 -0.34 6.8 0 0 Z " fill="#47749D" transform="translate(317,249)"/>
<path d="M0 0 C2.625 0.375 2.625 0.375 5 1 C5.33 2.32 5.66 3.64 6 5 C4.02 5 2.04 5 0 5 C0 5.66 0 6.32 0 7 C1.65 7 3.3 7 5 7 C5 7.66 5 8.32 5 9 C3.00045254 9.04254356 0.99958364 9.04080783 -1 9 C-2 8 -2 8 -2.1875 5.0625 C-2 2 -2 2 0 0 Z " fill="#2A5882" transform="translate(173,437)"/>
<path d="M0 0 C0.66 0.33 1.32 0.66 2 1 C2.33 9.25 2.66 17.5 3 26 C2.34 26 1.68 26 1 26 C0.6372181 21.85487264 0.28621489 17.70883258 -0.0625 13.5625 C-0.16626953 12.37849609 -0.27003906 11.19449219 -0.37695312 9.97460938 C-0.47041016 8.84990234 -0.56386719 7.72519531 -0.66015625 6.56640625 C-0.74918213 5.52427979 -0.83820801 4.48215332 -0.92993164 3.40844727 C-0.9530542 2.61365967 -0.97617676 1.81887207 -1 1 C-0.67 0.67 -0.34 0.34 0 0 Z " fill="#A07C5E" transform="translate(136,286)"/>
<path d="M0 0 C2.00720923 0.28674418 4.0085944 0.61866701 6 1 C6 2.32 6 3.64 6 5 C4.35 5 2.7 5 1 5 C1 5.66 1 6.32 1 7 C2.65 6.67 4.3 6.34 6 6 C5.67 6.99 5.34 7.98 5 9 C3.33388095 9.042721 1.66617115 9.04063832 0 9 C-1 8 -1 8 -1.125 4.5 C-1 1 -1 1 0 0 Z " fill="#2E5B84" transform="translate(141,437)"/>
<path d="M0 0 C1.65 0.33 3.3 0.66 5 1 C5 3.64 5 6.28 5 9 C3.02 9 1.04 9 -1 9 C-1.33 7.68 -1.66 6.36 -2 5 C-0.35 4.67 1.3 4.34 3 4 C3 3.34 3 2.68 3 2 C1.35 2.33 -0.3 2.66 -2 3 C-1.34 2.01 -0.68 1.02 0 0 Z " fill="#3F6B92" transform="translate(79,437)"/>
<path d="M0 0 C5.75 -0.125 5.75 -0.125 8 1 C8 3.64 8 6.28 8 9 C7.01 9 6.02 9 5 9 C5 6.69 5 4.38 5 2 C4.01 2.495 4.01 2.495 3 3 C2.34227572 6.02934491 2.34227572 6.02934491 2 9 C1.34 9 0.68 9 0 9 C0 6.03 0 3.06 0 0 Z " fill="#36648C" transform="translate(362,437)"/>
<path d="M0 0 C5.75 -0.125 5.75 -0.125 8 1 C8 3.64 8 6.28 8 9 C7.01 9 6.02 9 5 9 C5 6.69 5 4.38 5 2 C4.01 2.495 4.01 2.495 3 3 C2.34227572 6.02934491 2.34227572 6.02934491 2 9 C1.34 9 0.68 9 0 9 C0 6.03 0 3.06 0 0 Z " fill="#38648A" transform="translate(149,437)"/>
<path d="M0 0 C4.875 0.875 4.875 0.875 6 2 C5.71269945 4.33944736 5.38063221 6.6739143 5 9 C3.35 9 1.7 9 0 9 C0 6.03 0 3.06 0 0 Z " fill="#FCF9F2" transform="translate(89,394)"/>
<path d="M0 0 C2 0.9375 2 0.9375 4 3 C4.36475845 6.02534949 4.22893297 8.96663814 4 12 C3.34 11.67 2.68 11.34 2 11 C1.01 14.465 1.01 14.465 0 18 C-0.33 18 -0.66 18 -1 18 C-1.02717692 15.93757383 -1.0464758 13.87504297 -1.0625 11.8125 C-1.07410156 10.66394531 -1.08570313 9.51539063 -1.09765625 8.33203125 C-1.01192832 5.40699414 -0.67849023 2.83683709 0 0 Z " fill="#A27E5F" transform="translate(132,274)"/>
<path d="M0 0 C2.33294775 -0.04241723 4.66702567 -0.04092937 7 0 C8 1 8 1 8.09765625 2.84765625 C8.04882812 5.92382812 8.04882812 5.92382812 8 9 C7.34 9 6.68 9 6 9 C6 6.69 6 4.38 6 2 C5.01 2 4.02 2 3 2 C3 4.31 3 6.62 3 9 C2.01 9 1.02 9 0 9 C0 6.03 0 3.06 0 0 Z " fill="#255075" transform="translate(299,437)"/>
<path d="M0 0 C0.33 0 0.66 0 1 0 C1 3.96 1 7.92 1 12 C0.67 12 0.34 12 0 12 C0 10.02 0 8.04 0 6 C-0.99 6 -1.98 6 -3 6 C-3 7.98 -3 9.96 -3 12 C-3.99 12 -4.98 12 -6 12 C-6 9.03 -6 6.06 -6 3 C-4.02 3 -2.04 3 0 3 C0 2.01 0 1.02 0 0 Z " fill="#678CAE" transform="translate(273,434)"/>
<path d="M0 0 C0.66 0 1.32 0 2 0 C2 7.92 2 15.84 2 24 C-0.56857454 20.14713818 -1.19034473 17.45838932 -0.87890625 12.890625 C-0.83056641 12.13652344 -0.78222656 11.38242188 -0.73242188 10.60546875 C-0.67634766 9.82816406 -0.62027344 9.05085937 -0.5625 8.25 C-0.51029297 7.45722656 -0.45808594 6.66445312 -0.40429688 5.84765625 C-0.27510676 3.89806003 -0.13830035 1.94897114 0 0 Z " fill="#B3906E" transform="translate(126,212)"/>
<path d="M0 0 C2.64 0 5.28 0 8 0 C8 0.66 8 1.32 8 2 C6.02 2 4.04 2 2 2 C2 2.99 2 3.98 2 5 C3.65 5 5.3 5 7 5 C7 5.66 7 6.32 7 7 C5.35 7 3.7 7 2 7 C2 8.65 2 10.3 2 12 C1.34 12 0.68 12 0 12 C0 8.04 0 4.08 0 0 Z " fill="#1C4C76" transform="translate(49,434)"/>
<path d="M0 0 C0 0.66 0 1.32 0 2 C-12.87 2.99 -12.87 2.99 -26 4 C-22.27692879 0.27692879 -19.65333042 0.460167 -14.6875 0.3125 C-13.94048828 0.27833984 -13.19347656 0.24417969 -12.42382812 0.20898438 C-8.28111148 0.0307639 -4.14693733 -0.03296453 0 0 Z " fill="#A07C5D" transform="translate(200,338)"/>
<path d="M0 0 C0.33 0 0.66 0 1 0 C1.33776684 1.7491497 1.67003671 3.49936145 2 5.25 C2.185625 6.22453125 2.37125 7.1990625 2.5625 8.203125 C3 11 3 11 3 15 C1.35 15 -0.3 15 -2 15 C-1.85816304 13.24967156 -1.71136571 11.49974466 -1.5625 9.75 C-1.48128906 8.77546875 -1.40007813 7.8009375 -1.31640625 6.796875 C-1.04925416 4.43538247 -0.64628032 2.28098935 0 0 Z " fill="#F6EFE5" transform="translate(63,395)"/>
<path d="M0 0 C0 0.99 0 1.98 0 3 C-6.27 3 -12.54 3 -19 3 C-19 2.34 -19 1.68 -19 1 C-16.95857606 0.83038614 -14.91684689 0.66444404 -12.875 0.5 C-11.16957031 0.36078125 -11.16957031 0.36078125 -9.4296875 0.21875 C-6.27402851 0.0174779 -3.16078835 -0.03842904 0 0 Z " fill="#B4916E" transform="translate(200,362)"/>
<path d="M0 0 C0.33 0 0.66 0 1 0 C1.66 4.95 2.32 9.9 3 15 C1.35 15 -0.3 15 -2 15 C-1.85816304 13.24967156 -1.71136571 11.49974466 -1.5625 9.75 C-1.48128906 8.77546875 -1.40007812 7.8009375 -1.31640625 6.796875 C-1.04925416 4.43538247 -0.64628032 2.28098935 0 0 Z " fill="#F8F0E6" transform="translate(149,395)"/>
<path d="M0 0 C4.29 0 8.58 0 13 0 C12.67 0.66 12.34 1.32 12 2 C9.03 1.505 9.03 1.505 6 1 C6 3.97 6 6.94 6 10 C5.01 9.67 4.02 9.34 3 9 C3.33 8.34 3.66 7.68 4 7 C2.35 7.33 0.7 7.66 -1 8 C-1 7.34 -1 6.68 -1 6 C0.65 6 2.3 6 4 6 C4 4.68 4 3.36 4 2 C2.68 1.34 1.36 0.68 0 0 Z " fill="#E1F6FA" transform="translate(143,436)"/>
<path d="M0 0 C2.4375 0.375 2.4375 0.375 5 1 C5.33 1.66 5.66 2.32 6 3 C4.35 2.67 2.7 2.34 1 2 C1 2.66 1 3.32 1 4 C2.65 4.33 4.3 4.66 6 5 C5.67 6.32 5.34 7.64 5 9 C3.35 9 1.7 9 0 9 C-0.33 8.01 -0.66 7.02 -1 6 C0.32 6 1.64 6 3 6 C1.68 5.34 0.36 4.68 -1 4 C-0.67 2.68 -0.34 1.36 0 0 Z " fill="#2A567D" transform="translate(310,437)"/>
<path d="M0 0 C2.4375 0.375 2.4375 0.375 5 1 C5.33 1.66 5.66 2.32 6 3 C4.35 2.67 2.7 2.34 1 2 C1 2.66 1 3.32 1 4 C2.65 4.33 4.3 4.66 6 5 C5.67 6.32 5.34 7.64 5 9 C3.35 9 1.7 9 0 9 C-0.33 8.01 -0.66 7.02 -1 6 C0.32 6 1.64 6 3 6 C1.68 5.34 0.36 4.68 -1 4 C-0.67 2.68 -0.34 1.36 0 0 Z " fill="#29567D" transform="translate(284,437)"/>
<path d="M0 0 C1.32 0 2.64 0 4 0 C4 3.96 4 7.92 4 12 C3.01 12 2.02 12 1 12 C0.67 8.04 0.34 4.08 0 0 Z " fill="#7495AF" transform="translate(294,434)"/>
<path d="M0 0 C1.99954746 -0.04254356 4.00041636 -0.04080783 6 0 C7 1 7 1 7.09765625 2.84765625 C7.06510417 4.8984375 7.03255208 6.94921875 7 9 C6.34 9 5.68 9 5 9 C5 6.69 5 4.38 5 2 C4.01 2 3.02 2 2 2 C2 4.31 2 6.62 2 9 C1.34 9 0.68 9 0 9 C0 6.03 0 3.06 0 0 Z " fill="#27557F" transform="translate(233,437)"/>
<path d="M0 0 C1.65 0.33 3.3 0.66 5 1 C5 3.64 5 6.28 5 9 C4.01 8.67 3.02 8.34 2 8 C2.33 7.01 2.66 6.02 3 5 C2.34 5 1.68 5 1 5 C1 5.99 1 6.98 1 8 C0.34 8 -0.32 8 -1 8 C-0.814375 7.360625 -0.62875 6.72125 -0.4375 6.0625 C-0.293125 5.381875 -0.14875 4.70125 0 4 C-0.33 3.67 -0.66 3.34 -1 3 C-0.67 2.01 -0.34 1.02 0 0 Z " fill="#2E5B84" transform="translate(206,437)"/>
<path d="M0 0 C2.625 0.375 2.625 0.375 5 1 C5 1.66 5 2.32 5 3 C3.68 3 2.36 3 1 3 C1 3.99 1 4.98 1 6 C2.32 6 3.64 6 5 6 C4.67 6.99 4.34 7.98 4 9 C-0.875 8.125 -0.875 8.125 -2 7 C-2.1875 4.5625 -2.1875 4.5625 -2 2 C-1.34 1.34 -0.68 0.68 0 0 Z " fill="#2B5981" transform="translate(182,437)"/>
<path d="M0 0 C1.32 0.66 2.64 1.32 4 2 C3.979375 2.78375 3.95875 3.5675 3.9375 4.375 C3.81315937 6.98114961 3.81315937 6.98114961 5 9 C0.545 9.495 0.545 9.495 -4 10 C-4 9.67 -4 9.34 -4 9 C-2.35 9 -0.7 9 1 9 C1 8.34 1 7.68 1 7 C-0.65 7 -2.3 7 -4 7 C-4 6.34 -4 5.68 -4 5 C-2.02 5 -0.04 5 2 5 C1.34 3.35 0.68 1.7 0 0 Z " fill="#D3E8F2" transform="translate(177,437)"/>
<path d="M0 0 C0.66 0 1.32 0 2 0 C2 0.66 2 1.32 2 2 C2.66 2.33 3.32 2.66 4 3 C4 5.64 4 8.28 4 11 C2.68 10.67 1.36 10.34 0 10 C-1.125 2.25 -1.125 2.25 0 0 Z " fill="#3D6A92" transform="translate(318,435)"/>
<path d="M0 0 C0.99 0.33 1.98 0.66 3 1 C3 1.99 3 2.98 3 4 C4.32 4.66 5.64 5.32 7 6 C4.07175348 6.97608217 2.04386724 7.08226668 -1 7 C-1.625 5.1875 -1.625 5.1875 -2 3 C-1.34 2.01 -0.68 1.02 0 0 Z " fill="#D5EBF6" transform="translate(281,437)"/>
<path d="M0 0 C0.66 0.33 1.32 0.66 2 1 C1.67 2.98 1.34 4.96 1 7 C4.27773504 6.24849977 4.27773504 6.24849977 6 3 C6 4.65 6 6.3 6 8 C4.0085944 8.38133299 2.00720923 8.71325582 0 9 C-1 8 -1 8 -1.125 4.5 C-1 1 -1 1 0 0 Z " fill="#265783" transform="translate(131,437)"/>
<path d="M0 0 C0.66 0 1.32 0 2 0 C2 0.66 2 1.32 2 2 C2.66 2.33 3.32 2.66 4 3 C3.34 4.98 2.68 6.96 2 9 C2.66 9 3.32 9 4 9 C4 9.66 4 10.32 4 11 C2.68 10.67 1.36 10.34 0 10 C-1.125 2.25 -1.125 2.25 0 0 Z " fill="#336088" transform="translate(213,435)"/>
<path d="M0 0 C0.66 0.33 1.32 0.66 2 1 C2 3.31 2 5.62 2 8 C1.01 8.495 1.01 8.495 0 9 C-0.33 8.01 -0.66 7.02 -1 6 C-3.01508358 5.26676204 -3.01508358 5.26676204 -5 5 C-5 4.34 -5 3.68 -5 3 C-3.68 3 -2.36 3 -1 3 C-1.33 2.34 -1.66 1.68 -2 1 C-1.34 0.67 -0.68 0.34 0 0 Z " fill="#CDE5F2" transform="translate(316,436)"/>
<path d="M0 0 C0.33 0 0.66 0 1 0 C1.33 5.28 1.66 10.56 2 16 C-1.3 16 -4.6 16 -8 16 C-8 15.67 -8 15.34 -8 15 C-4.535 14.505 -4.535 14.505 -1 14 C-0.67 9.38 -0.34 4.76 0 0 Z " fill="#C1AC99" transform="translate(103,409)"/>
<path d="M0 0 C0.99 0 1.98 0 3 0 C2.67 3.96 2.34 7.92 2 12 C1.34 12 0.68 12 0 12 C0 8.04 0 4.08 0 0 Z " fill="#496D8B" transform="translate(323,434)"/>
<path d="M0 0 C0.99 0 1.98 0 3 0 C3 3.96 3 7.92 3 12 C2.34 12 1.68 12 1 12 C0.67 8.04 0.34 4.08 0 0 Z " fill="#4D718F" transform="translate(218,434)"/>
<path d="M0 0 C0.66 0 1.32 0 2 0 C3.28317892 3.84953676 3.06643637 6.94738135 3 11 C2.01 11 1.02 11 0 11 C-0.19491452 9.54263913 -0.38069358 8.08405407 -0.5625 6.625 C-0.66691406 5.81289063 -0.77132813 5.00078125 -0.87890625 4.1640625 C-1 2 -1 2 0 0 Z " fill="#1D4C77" transform="translate(343,435)"/>
<path d="M0 0 C0.66 0 1.32 0 2 0 C3.28317892 3.84953676 3.06643637 6.94738135 3 11 C2.01 11 1.02 11 0 11 C-0.19491452 9.54263913 -0.38069358 8.08405407 -0.5625 6.625 C-0.66691406 5.81289063 -0.77132813 5.00078125 -0.87890625 4.1640625 C-1 2 -1 2 0 0 Z " fill="#174E7E" transform="translate(328,435)"/>
<path d="M0 0 C1.65 0 3.3 0 5 0 C5 0.99 5 1.98 5 3 C4.01 3 3.02 3 2 3 C2 4.98 2 6.96 2 9 C1.34 9 0.68 9 0 9 C0 6.03 0 3.06 0 0 Z " fill="#2B5A83" transform="translate(68,437)"/>
<path d="M0 0 C1.65 0 3.3 0 5 0 C5 0.99 5 1.98 5 3 C4.01 3 3.02 3 2 3 C2 4.98 2 6.96 2 9 C1.34 9 0.68 9 0 9 C0 6.03 0 3.06 0 0 Z " fill="#2D597F" transform="translate(199,437)"/>
<path d="M0 0 C0.99 0 1.98 0 3 0 C3 0.66 3 1.32 3 2 C2.01 2.495 2.01 2.495 1 3 C1 3.99 1 4.98 1 6 C1.66 6.33 2.32 6.66 3 7 C3 7.66 3 8.32 3 9 C-0.875 8.125 -0.875 8.125 -2 7 C-2.1875 4.5625 -2.1875 4.5625 -2 2 C-1.34 1.34 -0.68 0.68 0 0 Z " fill="#2C5A82" transform="translate(259,437)"/>
<path d="M0 0 C0 1.32 0 2.64 0 4 C-7.50769231 4.36923077 -7.50769231 4.36923077 -10 2.5 C-10.33 2.005 -10.66 1.51 -11 1 C-7.27569643 0.30710631 -3.78916254 -0.11144596 0 0 Z " fill="#A07C5E" transform="translate(200,344)"/>
<path d="M0 0 C0.66 0 1.32 0 2 0 C1.67 1.65 1.34 3.3 1 5 C-3.75 6.125 -3.75 6.125 -6 5 C-5.34 3.68 -4.68 2.36 -4 1 C-4 1.99 -4 2.98 -4 4 C-3.01 3.67 -2.02 3.34 -1 3 C-0.67 2.01 -0.34 1.02 0 0 Z " fill="#275884" transform="translate(126,440)"/>
<path d="M0 0 C0.33 0.66 0.66 1.32 1 2 C1.66 2 2.32 2 3 2 C3 4.31 3 6.62 3 9 C2.01 9 1.02 9 0 9 C0 6.03 0 3.06 0 0 Z " fill="#527B9F" transform="translate(299,437)"/>
<path d="M0 0 C0.99 0 1.98 0 3 0 C3.144375 0.7425 3.28875 1.485 3.4375 2.25 C3.90187492 4.52027739 4.41863569 6.75759479 5 9 C4.01 9 3.02 9 2 9 C1.34 6.03 0.68 3.06 0 0 Z " fill="#2E5C85" transform="translate(97,437)"/>
<path d="M0 0 C0.99 0 1.98 0 3 0 C3 2.31 3 4.62 3 7 C2.01 7 1.02 7 0 7 C0 4.69 0 2.38 0 0 Z M-2 7 C0 8 0 8 0 8 Z " fill="#DFF3FC" transform="translate(302,439)"/>
<path d="M0 0 C2.00720923 0.28674418 4.0085944 0.61866701 6 1 C5.67 1.99 5.34 2.98 5 4 C3.35 4 1.7 4 0 4 C-0.33 3.01 -0.66 2.02 -1 1 C-0.67 0.67 -0.34 0.34 0 0 Z " fill="#48789F" transform="translate(141,437)"/>
<path d="M0 0 C2.97 1.98 2.97 1.98 6 4 C5.01 4.33 4.02 4.66 3 5 C2.34 4.67 1.68 4.34 1 4 C0.67 4.99 0.34 5.98 0 7 C-0.33 7 -0.66 7 -1 7 C-1.04254356 5.00045254 -1.04080783 2.99958364 -1 1 C-0.67 0.67 -0.34 0.34 0 0 Z " fill="#C8E8F7" transform="translate(308,439)"/>
<path d="M0 0 C0.99 0.66 1.98 1.32 3 2 C3 2.99 3 3.98 3 5 C1.35 5 -0.3 5 -2 5 C-2.33 4.01 -2.66 3.02 -3 2 C-2.01 2 -1.02 2 0 2 C0 1.34 0 0.68 0 0 Z " fill="#4E7CA2" transform="translate(176,437)"/>
<path d="M0 0 C0.99 0 1.98 0 3 0 C2.25 4.75 2.25 4.75 0 7 C-0.66 6.67 -1.32 6.34 -2 6 C-1.34 4.02 -0.68 2.04 0 0 Z " fill="#5683AB" transform="translate(102,437)"/>
<path d="M0 0 C0.33 0 0.66 0 1 0 C1.33 2.97 1.66 5.94 2 9 C-0.97 9 -3.94 9 -7 9 C-7 8.67 -7 8.34 -7 8 C-5.02 7.67 -3.04 7.34 -1 7 C-0.67 4.69 -0.34 2.38 0 0 Z " fill="#C1AC9A" transform="translate(161,416)"/>
<path d="M0 0 C1.4606285 2.64738916 2 3.89448334 2 7 C-0.97 7 -3.94 7 -7 7 C-3 5 -3 5 0 5 C0 3.35 0 1.7 0 0 Z " fill="#BDA793" transform="translate(75,418)"/>
<path d="M0 0 C0.66 0 1.32 0 2 0 C2 2.31 2 4.62 2 7 C1.01 7 0.02 7 -1 7 C-1.04254356 5.00045254 -1.04080783 2.99958364 -1 1 C-0.67 0.67 -0.34 0.34 0 0 Z " fill="#DDF0F7" transform="translate(365,439)"/>
<path d="M0 0 C1.32 0.33 2.64 0.66 4 1 C3.67 2.32 3.34 3.64 3 5 C2.01 5 1.02 5 0 5 C0 3.35 0 1.7 0 0 Z " fill="#D3ECF8" transform="translate(225,439)"/>
<path d="M0 0 C0.99 0 1.98 0 3 0 C3 1.65 3 3.3 3 5 C1.68 4.67 0.36 4.34 -1 4 C-0.67 2.68 -0.34 1.36 0 0 Z " fill="#D2E9F4" transform="translate(113,439)"/>
<path d="M0 0 C0.99 0 1.98 0 3 0 C3 1.65 3 3.3 3 5 C1.68 4.67 0.36 4.34 -1 4 C-0.67 2.68 -0.34 1.36 0 0 Z " fill="#D2E9F4" transform="translate(61,439)"/>
<path d="M0 0 C0.99 0 1.98 0 3 0 C3 1.65 3 3.3 3 5 C1.68 4.67 0.36 4.34 -1 4 C-0.67 2.68 -0.34 1.36 0 0 Z " fill="#D2E9F4" transform="translate(355,439)"/>
<path d="M0 0 C1.32 0.33 2.64 0.66 4 1 C3.67 2.32 3.34 3.64 3 5 C2.01 5 1.02 5 0 5 C0 3.35 0 1.7 0 0 Z " fill="#C7E1EE" transform="translate(164,439)"/>
<path d="M0 0 C1.32 0.33 2.64 0.66 4 1 C3.67 2.32 3.34 3.64 3 5 C2.01 5 1.02 5 0 5 C0 3.35 0 1.7 0 0 Z " fill="#C6E1EE" transform="translate(132,439)"/>
<path d="M0 0 C0.99 0 1.98 0 3 0 C3 3.96 3 7.92 3 12 C2.67 12 2.34 12 2 12 C2 9.03 2 6.06 2 3 C1.34 3 0.68 3 0 3 C0 2.01 0 1.02 0 0 Z " fill="#9EB8CB" transform="translate(348,434)"/>
<path d="M0 0 C0.99 0 1.98 0 3 0 C3 1.65 3 3.3 3 5 C1.68 4.67 0.36 4.34 -1 4 C-0.67 2.68 -0.34 1.36 0 0 Z " fill="#D1E9F7" transform="translate(260,439)"/>
<path d="M0 0 C0.99 0 1.98 0 3 0 C3 1.65 3 3.3 3 5 C1.68 4.67 0.36 4.34 -1 4 C-0.67 2.68 -0.34 1.36 0 0 Z " fill="#CFE9F6" transform="translate(192,439)"/>
<path d="M0 0 C1.32 0.33 2.64 0.66 4 1 C3.67 2.32 3.34 3.64 3 5 C2.01 5 1.02 5 0 5 C0 3.35 0 1.7 0 0 Z " fill="#D4EBF6" transform="translate(122,439)"/>
<path d="M0 0 C2.125 0.375 2.125 0.375 4 1 C2 3 0 5 -2 7 C-2.125 4.625 -2.125 4.625 -2 2 C-1.34 1.34 -0.68 0.68 0 0 Z " fill="#2F5D87" transform="translate(354,437)"/>
<path d="M0 0 C1.98 0 3.96 0 6 0 C5.67 0.99 5.34 1.98 5 3 C3.35 3 1.7 3 0 3 C0 2.01 0 1.02 0 0 Z " fill="#EBFEFE" transform="translate(51,436)"/>
</svg>
